<svg width="1067" height="521" xmlns="http://www.w3.org/2000/svg" xmlns:xlink="http://www.w3.org/1999/xlink" overflow="hidden"><g transform="translate(-40 -116)"><path d="M0 0 119.904 205.47" stroke="#ED7D31" stroke-width="1.33333" stroke-miterlimit="8" stroke-dasharray="5.33333 4" fill="none" fill-rule="evenodd" transform="matrix(1 0 0 -1 167.5 339.97)"/><path d="M167.5 415.5 287.405 616.928" stroke="#ED7D31" stroke-width="1.33333" stroke-miterlimit="8" stroke-dasharray="5.33333 4" fill="none" fill-rule="evenodd"/><path d="M277.5 163.326C277.5 138.569 297.569 118.5 322.326 118.5L833.674 118.5C858.431 118.5 878.5 138.569 878.5 163.326L878.5 588.674C878.5 613.431 858.431 633.5 833.674 633.5L322.326 633.5C297.569 633.5 277.5 613.431 277.5 588.674Z" stroke="#ED7D31" stroke-width="1.33333" stroke-miterlimit="8" fill="#FFFFFF" fill-rule="evenodd"/><text font-family="Calibri,Calibri_MSFontService,sans-serif" font-style="italic" font-weight="400" font-size="27" transform="translate(323.195 613)">[‘30’, ‘Healthy’, ‘Habits’, ‘Fit’, ‘People’, ‘Live’, ‘By’]</text><path d="M437.5 507.5 450.289 481.5 482.5 481.5 469.711 507.5Z" stroke="#223F59" stroke-width="0.333333" stroke-miterlimit="8" fill="none" fill-rule="evenodd"/><path d="M469.5 507.5 482.289 481.5 515.5 481.5 502.711 507.5Z" stroke="#223F59" stroke-width="0.333333" stroke-miterlimit="8" fill="none" fill-rule="evenodd"/><path d="M502.5 507.5 515.289 481.5 547.5 481.5 534.711 507.5Z" stroke="#223F59" stroke-width="0.333333" stroke-miterlimit="8" fill="none" fill-rule="evenodd"/><path d="M534.5 507.5 547.289 481.5 579.5 481.5 566.711 507.5Z" stroke="#223F59" stroke-width="0.333333" stroke-miterlimit="8" fill="none" fill-rule="evenodd"/><path d="M566.5 507.5 579.289 481.5 612.5 481.5 599.711 507.5Z" stroke="#223F59" stroke-width="0.333333" stroke-miterlimit="8" fill="#D9D9D9" fill-rule="evenodd"/><path d="M599.5 507.5 612.289 481.5 644.5 481.5 631.711 507.5Z" stroke="#223F59" stroke-width="0.333333" stroke-miterlimit="8" fill="none" fill-rule="evenodd"/><path d="M631.5 507.5 644.289 481.5 677.5 481.5 664.711 507.5Z" stroke="#223F59" stroke-width="0.333333" stroke-miterlimit="8" fill="none" fill-rule="evenodd"/><path d="M450.5 481.5 463.781 454.5 495.5 454.5 482.219 481.5Z" stroke="#223F59" stroke-width="0.333333" stroke-miterlimit="8" fill="none" fill-rule="evenodd"/><path d="M482.5 481.5 495.781 454.5 528.5 454.5 515.219 481.5Z" stroke="#223F59" stroke-width="0.333333" stroke-miterlimit="8" fill="none" fill-rule="evenodd"/><path d="M515.5 481.5 528.781 454.5 560.5 454.5 547.219 481.5Z" stroke="#223F59" stroke-width="0.333333" stroke-miterlimit="8" fill="none" fill-rule="evenodd"/><path d="M547.5 481.5 560.781 454.5 592.5 454.5 579.219 481.5Z" stroke="#223F59" stroke-width="0.333333" stroke-miterlimit="8" fill="none" fill-rule="evenodd"/><path d="M579.5 481.5 592.781 454.5 625.5 454.5 612.219 481.5Z" stroke="#223F59" stroke-width="0.333333" stroke-miterlimit="8" fill="#D9D9D9" fill-rule="evenodd"/><path d="M612.5 481.5 625.781 454.5 657.5 454.5 644.219 481.5Z" stroke="#223F59" stroke-width="0.333333" stroke-miterlimit="8" fill="none" fill-rule="evenodd"/><path d="M644.5 481.5 657.781 454.5 690.5 454.5 677.219 481.5Z" stroke="#223F59" stroke-width="0.333333" stroke-miterlimit="8" fill="none" fill-rule="evenodd"/><path d="M463.5 454.5 476.289 428.5 508.5 428.5 495.711 454.5Z" stroke="#223F59" stroke-width="0.333333" stroke-miterlimit="8" fill="none" fill-rule="evenodd"/><path d="M495.5 454.5 508.289 428.5 540.5 428.5 527.711 454.5Z" stroke="#223F59" stroke-width="0.333333" stroke-miterlimit="8" fill="none" fill-rule="evenodd"/><path d="M527.5 454.5 540.289 428.5 573.5 428.5 560.711 454.5Z" stroke="#223F59" stroke-width="0.333333" stroke-miterlimit="8" fill="none" fill-rule="evenodd"/><path d="M560.5 454.5 573.289 428.5 605.5 428.5 592.711 454.5Z" stroke="#223F59" stroke-width="0.333333" stroke-miterlimit="8" fill="none" fill-rule="evenodd"/><path d="M592.5 454.5 605.289 428.5 638.5 428.5 625.711 454.5Z" stroke="#223F59" stroke-width="0.333333" stroke-miterlimit="8" fill="#D9D9D9" fill-rule="evenodd"/><path d="M625.5 454.5 638.289 428.5 670.5 428.5 657.711 454.5Z" stroke="#223F59" stroke-width="0.333333" stroke-miterlimit="8" fill="none" fill-rule="evenodd"/><path d="M657.5 454.5 670.289 428.5 702.5 428.5 689.711 454.5Z" stroke="#223F59" stroke-width="0.333333" stroke-miterlimit="8" fill="none" fill-rule="evenodd"/><path d="M476.5 428.5 489.781 401.5 521.5 401.5 508.219 428.5Z" stroke="#223F59" stroke-width="0.333333" stroke-miterlimit="8" fill="none" fill-rule="evenodd"/><path d="M508.5 428.5 521.781 401.5 553.5 401.5 540.219 428.5Z" stroke="#223F59" stroke-width="0.333333" stroke-miterlimit="8" fill="none" fill-rule="evenodd"/><path d="M540.5 428.5 553.781 401.5 586.5 401.5 573.219 428.5Z" stroke="#223F59" stroke-width="0.333333" stroke-miterlimit="8" fill="none" fill-rule="evenodd"/><path d="M573.5 428.5 586.781 401.5 618.5 401.5 605.219 428.5Z" stroke="#223F59" stroke-width="0.333333" stroke-miterlimit="8" fill="none" fill-rule="evenodd"/><path d="M605.5 428.5 618.781 401.5 651.5 401.5 638.219 428.5Z" stroke="#223F59" stroke-width="0.333333" stroke-miterlimit="8" fill="#D9D9D9" fill-rule="evenodd"/><path d="M638.5 428.5 651.781 401.5 683.5 401.5 670.219 428.5Z" stroke="#223F59" stroke-width="0.333333" stroke-miterlimit="8" fill="none" fill-rule="evenodd"/><path d="M670.5 428.5 683.781 401.5 715.5 401.5 702.219 428.5Z" stroke="#223F59" stroke-width="0.333333" stroke-miterlimit="8" fill="none" fill-rule="evenodd"/><path d="M489.5 401.5 502.289 375.5 534.5 375.5 521.711 401.5Z" stroke="#223F59" stroke-width="0.333333" stroke-miterlimit="8" fill="none" fill-rule="evenodd"/><path d="M521.5 401.5 534.289 375.5 566.5 375.5 553.711 401.5Z" stroke="#223F59" stroke-width="0.333333" stroke-miterlimit="8" fill="none" fill-rule="evenodd"/><path d="M553.5 401.5 566.289 375.5 599.5 375.5 586.711 401.5Z" stroke="#223F59" stroke-width="0.333333" stroke-miterlimit="8" fill="none" fill-rule="evenodd"/><path d="M586.5 401.5 599.289 375.5 631.5 375.5 618.711 401.5Z" stroke="#223F59" stroke-width="0.333333" stroke-miterlimit="8" fill="none" fill-rule="evenodd"/><path d="M618.5 401.5 631.289 375.5 663.5 375.5 650.711 401.5Z" stroke="#223F59" stroke-width="0.333333" stroke-miterlimit="8" fill="#D9D9D9" fill-rule="evenodd"/><path d="M651.5 401.5 664.289 375.5 696.5 375.5 683.711 401.5Z" stroke="#223F59" stroke-width="0.333333" stroke-miterlimit="8" fill="none" fill-rule="evenodd"/><path d="M683.5 401.5 696.289 375.5 728.5 375.5 715.711 401.5Z" stroke="#223F59" stroke-width="0.333333" stroke-miterlimit="8" fill="none" fill-rule="evenodd"/><path d="M437.5 507.5 502.431 375.5 599.5 375.5 534.569 507.5Z" stroke="#FF0000" stroke-width="1.33333" stroke-miterlimit="8" fill="none" fill-rule="evenodd"/><path d="M498.5 340.5 511.781 313.5 543.5 313.5 530.219 340.5Z" stroke="#223F59" stroke-width="0.333333" stroke-miterlimit="8" fill="#FFF2CC" fill-rule="evenodd"/><path d="M531.5 340.5 544.781 313.5 576.5 313.5 563.219 340.5Z" stroke="#223F59" stroke-width="0.333333" stroke-miterlimit="8" fill="#FFF2CC" fill-rule="evenodd"/><path d="M563.5 340.5 576.781 313.5 608.5 313.5 595.219 340.5Z" stroke="#223F59" stroke-width="0.333333" stroke-miterlimit="8" fill="#FFF2CC" fill-rule="evenodd"/><path d="M595.5 340.5 608.781 313.5 641.5 313.5 628.219 340.5Z" stroke="#223F59" stroke-width="0.333333" stroke-miterlimit="8" fill="#FFF2CC" fill-rule="evenodd"/><path d="M479.5 313.5 492.289 287.5 524.5 287.5 511.711 313.5Z" stroke="#223F59" stroke-width="0.333333" stroke-miterlimit="8" fill="#FFF2CC" fill-rule="evenodd"/><path d="M511.5 313.5 524.289 287.5 556.5 287.5 543.711 313.5Z" stroke="#223F59" stroke-width="0.333333" stroke-miterlimit="8" fill="#FFF2CC" fill-rule="evenodd"/><path d="M543.5 313.5 556.289 287.5 589.5 287.5 576.711 313.5Z" stroke="#223F59" stroke-width="0.333333" stroke-miterlimit="8" fill="#FFF2CC" fill-rule="evenodd"/><path d="M576.5 313.5 589.289 287.5 621.5 287.5 608.711 313.5Z" stroke="#223F59" stroke-width="0.333333" stroke-miterlimit="8" fill="#FFF2CC" fill-rule="evenodd"/><path d="M608.5 313.5 621.289 287.5 654.5 287.5 641.711 313.5Z" stroke="#223F59" stroke-width="0.333333" stroke-miterlimit="8" fill="#FFF2CC" fill-rule="evenodd"/><path d="M492.5 287.5 505.781 260.5 537.5 260.5 524.219 287.5Z" stroke="#223F59" stroke-width="0.333333" stroke-miterlimit="8" fill="#FFF2CC" fill-rule="evenodd"/><path d="M524.5 287.5 537.781 260.5 569.5 260.5 556.219 287.5Z" stroke="#223F59" stroke-width="0.333333" stroke-miterlimit="8" fill="#FFF2CC" fill-rule="evenodd"/><path d="M556.5 287.5 569.781 260.5 602.5 260.5 589.219 287.5Z" stroke="#223F59" stroke-width="0.333333" stroke-miterlimit="8" fill="#FFF2CC" fill-rule="evenodd"/><path d="M589.5 287.5 602.781 260.5 634.5 260.5 621.219 287.5Z" stroke="#223F59" stroke-width="0.333333" stroke-miterlimit="8" fill="#FFF2CC" fill-rule="evenodd"/><path d="M621.5 287.5 634.781 260.5 667.5 260.5 654.219 287.5Z" stroke="#223F59" stroke-width="0.333333" stroke-miterlimit="8" fill="#FFF2CC" fill-rule="evenodd"/><path d="M504.5 260.5 517.289 234.5 550.5 234.5 537.711 260.5Z" stroke="#223F59" stroke-width="0.333333" stroke-miterlimit="8" fill="#FFF2CC" fill-rule="evenodd"/><path d="M537.5 260.5 550.289 234.5 582.5 234.5 569.711 260.5Z" stroke="#223F59" stroke-width="0.333333" stroke-miterlimit="8" fill="#FFF2CC" fill-rule="evenodd"/><path d="M569.5 260.5 582.289 234.5 615.5 234.5 602.711 260.5Z" stroke="#223F59" stroke-width="0.333333" stroke-miterlimit="8" fill="#FFF2CC" fill-rule="evenodd"/><path d="M602.5 260.5 615.289 234.5 647.5 234.5 634.711 260.5Z" stroke="#223F59" stroke-width="0.333333" stroke-miterlimit="8" fill="#FFF2CC" fill-rule="evenodd"/><path d="M634.5 260.5 647.289 234.5 679.5 234.5 666.711 260.5Z" stroke="#223F59" stroke-width="0.333333" stroke-miterlimit="8" fill="#FFF2CC" fill-rule="evenodd"/><path d="M491.5 287.5 504.781 260.5 666.5 260.5 653.219 287.5Z" stroke="#0000FF" stroke-width="1.33333" stroke-miterlimit="8" fill="none" fill-rule="evenodd"/><path d="M502.5 376.3 479.5 314.5" stroke="#FF0000" stroke-width="1.33333" stroke-miterlimit="8" stroke-dasharray="1.33333 1.33333" fill="none" fill-rule="evenodd"/><path d="M511.5 313.5 599.5 375.5" stroke="#FF0000" stroke-width="1.33333" stroke-miterlimit="8" stroke-dasharray="1.33333 1.33333" fill="none" fill-rule="evenodd"/><path d="M0 0 29.2 168" stroke="#FF0000" stroke-width="1.33333" stroke-miterlimit="8" stroke-dasharray="1.33333 1.33333" fill="none" fill-rule="evenodd" transform="matrix(1 0 0 -1 437.5 508.5)"/><path d="M534.939 508.618 498.5 339.5" stroke="#FF0000" stroke-width="1.33333" stroke-miterlimit="8" stroke-dasharray="1.33333 1.33333" fill="none" fill-rule="evenodd"/><path d="M466.5 340.5 479.781 313.5 511.5 313.5 498.219 340.5Z" stroke="#FF0000" stroke-width="1.33333" stroke-miterlimit="8" fill="#FFF2CC" fill-rule="evenodd"/><path d="M555.5 189.5 568.781 162.5 600.5 162.5 587.219 189.5Z" stroke="#223F59" stroke-width="0.333333" stroke-miterlimit="8" fill="#F8CBAD" fill-rule="evenodd"/><path d="M620.5 189.5 633.781 162.5 665.5 162.5 652.219 189.5Z" stroke="#223F59" stroke-width="0.333333" stroke-miterlimit="8" fill="#F8CBAD" fill-rule="evenodd"/><path d="M652.5 189.5 665.781 162.5 697.5 162.5 684.219 189.5Z" stroke="#223F59" stroke-width="0.333333" stroke-miterlimit="8" fill="#F8CBAD" fill-rule="evenodd"/><path d="M0 0 95 97.6" stroke="#0000FF" stroke-width="1.33333" stroke-miterlimit="8" stroke-dasharray="1.33333 1.33333" fill="none" fill-rule="evenodd" transform="matrix(-1 0 0 1 599.5 163.5)"/><path d="M633.5 163.5 666.7 261.3" stroke="#0000FF" stroke-width="1.33333" stroke-miterlimit="8" stroke-dasharray="1.33333 1.33333" fill="none" fill-rule="evenodd"/><path d="M0 0 95.1497 97.4103" stroke="#0000FF" stroke-width="1.33333" stroke-miterlimit="8" stroke-dasharray="1.33333 1.33333" fill="none" fill-rule="evenodd" transform="matrix(-1 0 0 1 587.65 189.5)"/><path d="M619.5 190.5 653.9 286.9" stroke="#0000FF" stroke-width="1.33333" stroke-miterlimit="8" stroke-dasharray="1.33333 1.33333" fill="none" fill-rule="evenodd"/><path d="M587.5 189.5 600.781 162.5 633.5 162.5 620.219 189.5Z" stroke="#0000FF" stroke-width="1.33333" stroke-miterlimit="8" fill="#F8CBAD" fill-rule="evenodd"/><path d="M670.466 582.327 588.147 512.327 589.011 511.311 671.33 581.311ZM587.003 515.73 583.5 507.5 592.186 509.635Z"/><text font-family="Calibri,Calibri_MSFontService,sans-serif" font-weight="400" font-size="27" transform="translate(931.237 612)">News Title</text><text font-family="Calibri,Calibri_MSFontService,sans-serif" font-weight="400" font-size="27" transform="translate(916.017 531)">Look up from</text><text font-family="Calibri,Calibri_MSFontService,sans-serif" font-weight="400" font-size="27" transform="translate(917.617 563)">word vectros</text><text font-family="Calibri,Calibri_MSFontService,sans-serif" font-weight="400" font-size="27" transform="translate(888.76 460)">Embedding matrix</text><text font-family="Calibri,Calibri_MSFontService,sans-serif" font-weight="400" font-size="27" transform="translate(922.48 389)">Convolution</text><text font-family="Calibri,Calibri_MSFontService,sans-serif" font-weight="400" font-size="27" transform="translate(919.217 318)">Feature map</text><text font-family="Calibri,Calibri_MSFontService,sans-serif" font-weight="400" font-size="27" transform="translate(921.01 247)">Max pooling</text><text font-family="Calibri,Calibri_MSFontService,sans-serif" font-weight="400" font-size="27" transform="translate(958.073 164)">News</text><text font-family="Calibri,Calibri_MSFontService,sans-serif" font-weight="400" font-size="27" transform="translate(907.567 196)">representation</text><path d="M42.5001 353C42.5001 346.097 48.0966 340.5 55.0003 340.5L167 340.5C173.904 340.5 179.5 346.097 179.5 353L179.5 403C179.5 409.904 173.904 415.5 167 415.5L55.0003 415.5C48.0966 415.5 42.5001 409.904 42.5001 403Z" stroke="#41719C" stroke-width="1.33333" stroke-miterlimit="8" fill="#5B9BD5" fill-rule="evenodd"/><text fill="#FFFFFF" font-family="Calibri,Calibri_MSFontService,sans-serif" font-weight="400" font-size="27" transform="translate(80.495 370)">News</text><text fill="#FFFFFF" font-family="Calibri,Calibri_MSFontService,sans-serif" font-weight="400" font-size="27" transform="translate(65.9216 402)">Encoder</text></g></svg>